<?xml version="1.0" standalone="no"?>
<!DOCTYPE svg PUBLIC "-//W3C//DTD SVG 20010904//EN"
 "http://www.w3.org/TR/2001/REC-SVG-20010904/DTD/svg10.dtd">
<svg version="1.0" xmlns="http://www.w3.org/2000/svg"
 width="500.000000pt" height="500.000000pt" viewBox="0 0 500.000000 500.000000"
 preserveAspectRatio="xMidYMid meet">
<metadata>
Created by potrace 1.14, written by Peter Selinger 2001-2017
</metadata>
<g transform="translate(0.000000,500.000000) scale(0.100000,-0.100000)"
fill="#000000" stroke="none">
<path d="M2329 4886 c-2 -2 -38 -6 -79 -10 -88 -7 -104 -10 -255 -40 -176 -36
-382 -109 -563 -199 -731 -366 -1227 -1083 -1310 -1890 -16 -163 -7 -487 18
-622 5 -27 11 -63 14 -80 12 -86 64 -263 131 -444 25 -70 126 -267 182 -358
196 -315 473 -590 790 -784 79 -49 256 -139 333 -169 30 -12 64 -26 75 -31 11
-4 52 -18 90 -29 39 -12 81 -26 95 -30 21 -8 123 -33 180 -45 153 -31 308 -43
515 -40 378 5 718 89 1045 259 297 154 512 326 753 605 55 63 156 208 214 306
59 99 150 281 157 315 1 3 14 37 28 75 41 106 87 268 103 360 35 194 40 253
40 460 0 155 -10 339 -20 355 -2 3 -6 30 -10 60 -4 30 -9 58 -11 61 -2 3 -6
20 -9 38 -54 307 -268 749 -488 1007 -237 280 -479 471 -787 624 -105 52 -240
110 -265 114 -5 1 -15 5 -21 8 -6 4 -28 12 -50 17 -21 6 -73 20 -114 31 -41
11 -86 23 -100 26 -44 9 -184 32 -230 39 -50 7 -445 17 -451 11z"/>
</g>
</svg>
